<svg xmlns="http://www.w3.org/2000/svg" xmlns:xlink="http://www.w3.org/1999/xlink" width="160" zoomAndPan="magnify" viewBox="0 0 120 34.499999" height="46" preserveAspectRatio="xMidYMid meet" version="1.0"><defs><g/><clipPath id="7382241396"><path d="M 2.1875 6.910156 L 23.628906 6.910156 L 23.628906 28.347656 L 2.1875 28.347656 Z M 2.1875 6.910156 " clip-rule="nonzero"/></clipPath></defs><g fill="#080b53" fill-opacity="1"><g transform="translate(36.168179, 22.343026)"><g><path d="M 5.09375 -2.1875 C 5.09375 -2.445312 4.960938 -2.648438 4.703125 -2.796875 C 4.453125 -2.941406 4.046875 -3.070312 3.484375 -3.1875 C 1.597656 -3.582031 0.65625 -4.382812 0.65625 -5.59375 C 0.65625 -6.289062 0.945312 -6.875 1.53125 -7.34375 C 2.113281 -7.8125 2.875 -8.046875 3.8125 -8.046875 C 4.820312 -8.046875 5.625 -7.8125 6.21875 -7.34375 C 6.820312 -6.875 7.125 -6.257812 7.125 -5.5 L 5.015625 -5.5 C 5.015625 -5.800781 4.914062 -6.050781 4.71875 -6.25 C 4.519531 -6.445312 4.21875 -6.546875 3.8125 -6.546875 C 3.457031 -6.546875 3.179688 -6.460938 2.984375 -6.296875 C 2.785156 -6.140625 2.6875 -5.9375 2.6875 -5.6875 C 2.6875 -5.457031 2.796875 -5.269531 3.015625 -5.125 C 3.242188 -4.976562 3.617188 -4.851562 4.140625 -4.75 C 4.671875 -4.644531 5.113281 -4.53125 5.46875 -4.40625 C 6.582031 -3.988281 7.140625 -3.273438 7.140625 -2.265625 C 7.140625 -1.546875 6.832031 -0.960938 6.21875 -0.515625 C 5.601562 -0.078125 4.804688 0.140625 3.828125 0.140625 C 3.160156 0.140625 2.566406 0.0234375 2.046875 -0.203125 C 1.535156 -0.441406 1.132812 -0.765625 0.84375 -1.171875 C 0.550781 -1.585938 0.40625 -2.035156 0.40625 -2.515625 L 2.40625 -2.515625 C 2.425781 -2.140625 2.566406 -1.851562 2.828125 -1.65625 C 3.085938 -1.457031 3.429688 -1.359375 3.859375 -1.359375 C 4.265625 -1.359375 4.570312 -1.429688 4.78125 -1.578125 C 4.988281 -1.734375 5.09375 -1.9375 5.09375 -2.1875 Z M 5.09375 -2.1875 "/></g></g></g><g fill="#080b53" fill-opacity="1"><g transform="translate(43.862583, 22.343026)"><g><path d="M 2.875 -7.046875 C 3.4375 -7.710938 4.140625 -8.046875 4.984375 -8.046875 C 6.703125 -8.046875 7.570312 -7.050781 7.59375 -5.0625 L 7.59375 0 L 5.484375 0 L 5.484375 -5 C 5.484375 -5.457031 5.382812 -5.796875 5.1875 -6.015625 C 4.988281 -6.234375 4.664062 -6.34375 4.21875 -6.34375 C 3.59375 -6.34375 3.144531 -6.101562 2.875 -5.625 L 2.875 0 L 0.765625 0 L 0.765625 -11.234375 L 2.875 -11.234375 Z M 2.875 -7.046875 "/></g></g></g><g fill="#080b53" fill-opacity="1"><g transform="translate(52.23655, 22.343026)"><g><path d="M 0.484375 -4.03125 C 0.484375 -4.8125 0.632812 -5.507812 0.9375 -6.125 C 1.238281 -6.738281 1.671875 -7.210938 2.234375 -7.546875 C 2.804688 -7.878906 3.46875 -8.046875 4.21875 -8.046875 C 5.28125 -8.046875 6.148438 -7.71875 6.828125 -7.0625 C 7.503906 -6.414062 7.878906 -5.535156 7.953125 -4.421875 L 7.96875 -3.875 C 7.96875 -2.65625 7.628906 -1.679688 6.953125 -0.953125 C 6.273438 -0.222656 5.363281 0.140625 4.21875 0.140625 C 3.082031 0.140625 2.175781 -0.222656 1.5 -0.953125 C 0.820312 -1.679688 0.484375 -2.675781 0.484375 -3.9375 Z M 2.59375 -3.875 C 2.59375 -3.125 2.734375 -2.550781 3.015625 -2.15625 C 3.296875 -1.757812 3.703125 -1.5625 4.234375 -1.5625 C 4.742188 -1.5625 5.140625 -1.753906 5.421875 -2.140625 C 5.710938 -2.535156 5.859375 -3.164062 5.859375 -4.03125 C 5.859375 -4.757812 5.710938 -5.328125 5.421875 -5.734375 C 5.140625 -6.140625 4.738281 -6.34375 4.21875 -6.34375 C 3.695312 -6.34375 3.296875 -6.140625 3.015625 -5.734375 C 2.734375 -5.335938 2.59375 -4.71875 2.59375 -3.875 Z M 2.59375 -3.875 "/></g></g></g><g fill="#080b53" fill-opacity="1"><g transform="translate(60.698202, 22.343026)"><g><path d="M 7.6875 -2.875 L 8.734375 -7.90625 L 10.765625 -7.90625 L 8.75 0 L 6.984375 0 L 5.484375 -4.984375 L 3.984375 0 L 2.21875 0 L 0.203125 -7.90625 L 2.25 -7.90625 L 3.28125 -2.875 L 4.71875 -7.90625 L 6.25 -7.90625 Z M 7.6875 -2.875 "/></g></g></g><g fill="#080b53" fill-opacity="1"><g transform="translate(71.695427, 22.343026)"><g><path d="M 6.46875 -2.796875 C 6.46875 -3.203125 6.320312 -3.515625 6.03125 -3.734375 C 5.738281 -3.960938 5.210938 -4.195312 4.453125 -4.4375 C 3.691406 -4.6875 3.085938 -4.929688 2.640625 -5.171875 C 1.429688 -5.828125 0.828125 -6.707031 0.828125 -7.8125 C 0.828125 -8.382812 0.988281 -8.894531 1.3125 -9.34375 C 1.644531 -9.800781 2.113281 -10.15625 2.71875 -10.40625 C 3.320312 -10.65625 4.003906 -10.78125 4.765625 -10.78125 C 5.515625 -10.78125 6.1875 -10.644531 6.78125 -10.375 C 7.382812 -10.101562 7.847656 -9.710938 8.171875 -9.203125 C 8.503906 -8.703125 8.671875 -8.132812 8.671875 -7.5 L 6.46875 -7.5 C 6.46875 -7.988281 6.316406 -8.367188 6.015625 -8.640625 C 5.710938 -8.910156 5.28125 -9.046875 4.71875 -9.046875 C 4.1875 -9.046875 3.769531 -8.929688 3.46875 -8.703125 C 3.175781 -8.472656 3.03125 -8.175781 3.03125 -7.8125 C 3.03125 -7.457031 3.203125 -7.160156 3.546875 -6.921875 C 3.898438 -6.691406 4.414062 -6.476562 5.09375 -6.28125 C 6.332031 -5.90625 7.238281 -5.4375 7.8125 -4.875 C 8.382812 -4.320312 8.671875 -3.632812 8.671875 -2.8125 C 8.671875 -1.882812 8.320312 -1.160156 7.625 -0.640625 C 6.925781 -0.117188 5.988281 0.140625 4.8125 0.140625 C 3.988281 0.140625 3.238281 -0.00390625 2.5625 -0.296875 C 1.894531 -0.597656 1.382812 -1.007812 1.03125 -1.53125 C 0.675781 -2.050781 0.5 -2.65625 0.5 -3.34375 L 2.703125 -3.34375 C 2.703125 -2.175781 3.40625 -1.59375 4.8125 -1.59375 C 5.332031 -1.59375 5.738281 -1.695312 6.03125 -1.90625 C 6.320312 -2.113281 6.46875 -2.410156 6.46875 -2.796875 Z M 6.46875 -2.796875 "/></g></g></g><g fill="#080b53" fill-opacity="1"><g transform="translate(80.8951, 22.343026)"><g><path d="M 3.34375 -9.859375 L 3.34375 -7.90625 L 4.6875 -7.90625 L 4.6875 -6.359375 L 3.34375 -6.359375 L 3.34375 -2.40625 C 3.34375 -2.113281 3.394531 -1.90625 3.5 -1.78125 C 3.613281 -1.65625 3.832031 -1.59375 4.15625 -1.59375 C 4.382812 -1.59375 4.585938 -1.609375 4.765625 -1.640625 L 4.765625 -0.046875 C 4.359375 0.078125 3.9375 0.140625 3.5 0.140625 C 2.007812 0.140625 1.253906 -0.601562 1.234375 -2.09375 L 1.234375 -6.359375 L 0.078125 -6.359375 L 0.078125 -7.90625 L 1.234375 -7.90625 L 1.234375 -9.859375 Z M 3.34375 -9.859375 "/></g></g></g><g fill="#080b53" fill-opacity="1"><g transform="translate(85.951631, 22.343026)"><g><path d="M 5.390625 0 C 5.296875 -0.1875 5.226562 -0.421875 5.1875 -0.703125 C 4.675781 -0.140625 4.007812 0.140625 3.1875 0.140625 C 2.414062 0.140625 1.773438 -0.0820312 1.265625 -0.53125 C 0.753906 -0.976562 0.5 -1.539062 0.5 -2.21875 C 0.5 -3.0625 0.804688 -3.707031 1.421875 -4.15625 C 2.046875 -4.601562 2.945312 -4.828125 4.125 -4.828125 L 5.09375 -4.828125 L 5.09375 -5.28125 C 5.09375 -5.644531 5 -5.9375 4.8125 -6.15625 C 4.625 -6.375 4.328125 -6.484375 3.921875 -6.484375 C 3.566406 -6.484375 3.285156 -6.398438 3.078125 -6.234375 C 2.878906 -6.066406 2.78125 -5.832031 2.78125 -5.53125 L 0.671875 -5.53125 C 0.671875 -5.988281 0.8125 -6.410156 1.09375 -6.796875 C 1.375 -7.191406 1.769531 -7.5 2.28125 -7.71875 C 2.800781 -7.9375 3.382812 -8.046875 4.03125 -8.046875 C 5.007812 -8.046875 5.785156 -7.800781 6.359375 -7.3125 C 6.929688 -6.820312 7.21875 -6.132812 7.21875 -5.25 L 7.21875 -1.828125 C 7.21875 -1.078125 7.320312 -0.507812 7.53125 -0.125 L 7.53125 0 Z M 3.640625 -1.46875 C 3.953125 -1.46875 4.238281 -1.535156 4.5 -1.671875 C 4.769531 -1.816406 4.96875 -2.003906 5.09375 -2.234375 L 5.09375 -3.59375 L 4.3125 -3.59375 C 3.25 -3.59375 2.679688 -3.226562 2.609375 -2.5 L 2.609375 -2.375 C 2.609375 -2.113281 2.703125 -1.894531 2.890625 -1.71875 C 3.078125 -1.550781 3.328125 -1.46875 3.640625 -1.46875 Z M 3.640625 -1.46875 "/></g></g></g><g fill="#080b53" fill-opacity="1"><g transform="translate(93.974856, 22.343026)"><g><path d="M 5.25 -5.921875 C 4.96875 -5.960938 4.71875 -5.984375 4.5 -5.984375 C 3.695312 -5.984375 3.171875 -5.710938 2.921875 -5.171875 L 2.921875 0 L 0.8125 0 L 0.8125 -7.90625 L 2.8125 -7.90625 L 2.859375 -6.96875 C 3.285156 -7.6875 3.875 -8.046875 4.625 -8.046875 C 4.863281 -8.046875 5.082031 -8.015625 5.28125 -7.953125 Z M 5.25 -5.921875 "/></g></g></g><g fill="#080b53" fill-opacity="1"><g transform="translate(99.433279, 22.343026)"><g><path d="M 3.34375 -9.859375 L 3.34375 -7.90625 L 4.6875 -7.90625 L 4.6875 -6.359375 L 3.34375 -6.359375 L 3.34375 -2.40625 C 3.34375 -2.113281 3.394531 -1.90625 3.5 -1.78125 C 3.613281 -1.65625 3.832031 -1.59375 4.15625 -1.59375 C 4.382812 -1.59375 4.585938 -1.609375 4.765625 -1.640625 L 4.765625 -0.046875 C 4.359375 0.078125 3.9375 0.140625 3.5 0.140625 C 2.007812 0.140625 1.253906 -0.601562 1.234375 -2.09375 L 1.234375 -6.359375 L 0.078125 -6.359375 L 0.078125 -7.90625 L 1.234375 -7.90625 L 1.234375 -9.859375 Z M 3.34375 -9.859375 "/></g></g></g><g fill="#080b53" fill-opacity="1"><g transform="translate(104.489811, 22.343026)"><g><path d="M 4.453125 0.140625 C 3.296875 0.140625 2.351562 -0.210938 1.625 -0.921875 C 0.894531 -1.628906 0.53125 -2.578125 0.53125 -3.765625 L 0.53125 -3.96875 C 0.53125 -4.757812 0.679688 -5.46875 0.984375 -6.09375 C 1.296875 -6.71875 1.734375 -7.195312 2.296875 -7.53125 C 2.859375 -7.875 3.5 -8.046875 4.21875 -8.046875 C 5.300781 -8.046875 6.148438 -7.707031 6.765625 -7.03125 C 7.390625 -6.351562 7.703125 -5.382812 7.703125 -4.125 L 7.703125 -3.265625 L 2.671875 -3.265625 C 2.734375 -2.753906 2.9375 -2.34375 3.28125 -2.03125 C 3.625 -1.71875 4.0625 -1.5625 4.59375 -1.5625 C 5.40625 -1.5625 6.039062 -1.851562 6.5 -2.4375 L 7.53125 -1.28125 C 7.21875 -0.832031 6.789062 -0.484375 6.25 -0.234375 C 5.707031 0.015625 5.109375 0.140625 4.453125 0.140625 Z M 4.203125 -6.34375 C 3.785156 -6.34375 3.445312 -6.203125 3.1875 -5.921875 C 2.925781 -5.640625 2.757812 -5.234375 2.6875 -4.703125 L 5.625 -4.703125 L 5.625 -4.875 C 5.613281 -5.34375 5.484375 -5.703125 5.234375 -5.953125 C 4.992188 -6.210938 4.648438 -6.34375 4.203125 -6.34375 Z M 4.203125 -6.34375 "/></g></g></g><g fill="#080b53" fill-opacity="1"><g transform="translate(112.578799, 22.343026)"><g><path d="M 5.25 -5.921875 C 4.96875 -5.960938 4.71875 -5.984375 4.5 -5.984375 C 3.695312 -5.984375 3.171875 -5.710938 2.921875 -5.171875 L 2.921875 0 L 0.8125 0 L 0.8125 -7.90625 L 2.8125 -7.90625 L 2.859375 -6.96875 C 3.285156 -7.6875 3.875 -8.046875 4.625 -8.046875 C 4.863281 -8.046875 5.082031 -8.015625 5.28125 -7.953125 Z M 5.25 -5.921875 "/></g></g></g><path stroke-linecap="butt" transform="matrix(0.000000000000000044, -0.72605, 0.739286, 0.000000000000000045, 29.588601, 26.436451)" fill="none" stroke-linejoin="miter" d="M -0.00144484 1.000322 L 24.451273 1.000322 " stroke="#080b53" stroke-width="2" stroke-opacity="1" stroke-miterlimit="4"/><g clip-path="url(#7382241396)"><path fill="#080b53" d="M 20.488281 10.046875 C 18.464844 8.023438 15.773438 6.910156 12.90625 6.910156 C 10.042969 6.910156 7.347656 8.023438 5.324219 10.046875 C 3.300781 12.070312 2.1875 14.761719 2.1875 17.628906 C 2.1875 20.492188 3.300781 23.1875 5.324219 25.210938 C 7.347656 27.234375 10.042969 28.347656 12.90625 28.347656 C 15.773438 28.347656 18.464844 27.234375 20.488281 25.210938 C 22.511719 23.1875 23.628906 20.492188 23.628906 17.628906 C 23.628906 14.761719 22.511719 12.070312 20.488281 10.046875 Z M 12.90625 27.472656 C 7.480469 27.472656 3.0625 23.054688 3.0625 17.628906 C 3.0625 12.199219 7.480469 7.785156 12.90625 7.785156 C 18.335938 7.785156 22.753906 12.199219 22.753906 17.628906 C 22.753906 23.054688 18.335938 27.472656 12.90625 27.472656 Z M 12.90625 27.472656 " fill-opacity="1" fill-rule="nonzero"/></g><path fill="#080b53" d="M 12.90625 13.515625 C 10.640625 13.515625 8.792969 15.359375 8.792969 17.628906 C 8.792969 19.894531 10.640625 21.742188 12.90625 21.742188 C 15.175781 21.742188 17.019531 19.894531 17.019531 17.628906 C 17.019531 15.359375 15.175781 13.515625 12.90625 13.515625 Z M 12.90625 20.867188 C 11.121094 20.867188 9.667969 19.414062 9.667969 17.628906 C 9.667969 15.84375 11.121094 14.390625 12.90625 14.390625 C 14.691406 14.390625 16.144531 15.84375 16.144531 17.628906 C 16.144531 19.414062 14.691406 20.867188 12.90625 20.867188 Z M 12.90625 20.867188 " fill-opacity="1" fill-rule="nonzero"/><path fill="#080b53" d="M 12.90625 16.402344 C 12.230469 16.402344 11.683594 16.953125 11.683594 17.628906 C 11.683594 18.304688 12.230469 18.851562 12.90625 18.851562 C 13.582031 18.851562 14.132812 18.304688 14.132812 17.628906 C 14.132812 16.953125 13.582031 16.402344 12.90625 16.402344 Z M 12.90625 17.976562 C 12.714844 17.976562 12.558594 17.820312 12.558594 17.628906 C 12.558594 17.433594 12.714844 17.277344 12.90625 17.277344 C 13.101562 17.277344 13.257812 17.433594 13.257812 17.628906 C 13.257812 17.820312 13.101562 17.976562 12.90625 17.976562 Z M 12.90625 17.976562 " fill-opacity="1" fill-rule="nonzero"/><path fill="#080b53" d="M 19.03125 17.191406 C 18.792969 17.191406 18.59375 17.386719 18.59375 17.628906 C 18.59375 20.765625 16.042969 23.316406 12.90625 23.316406 C 12.664062 23.316406 12.46875 23.511719 12.46875 23.753906 C 12.46875 23.996094 12.664062 24.191406 12.90625 24.191406 C 14.660156 24.191406 16.308594 23.507812 17.550781 22.269531 C 18.789062 21.03125 19.46875 19.382812 19.46875 17.628906 C 19.46875 17.386719 19.273438 17.191406 19.03125 17.191406 Z M 19.03125 17.191406 " fill-opacity="1" fill-rule="nonzero"/><path fill="#080b53" d="M 21 17.191406 C 20.761719 17.191406 20.5625 17.386719 20.5625 17.628906 C 20.5625 17.691406 20.5625 17.75 20.5625 17.8125 C 20.554688 18.054688 20.746094 18.253906 20.988281 18.261719 C 20.992188 18.261719 20.996094 18.261719 21 18.261719 C 21.238281 18.261719 21.429688 18.070312 21.4375 17.835938 C 21.4375 17.765625 21.441406 17.695312 21.441406 17.628906 C 21.441406 17.386719 21.242188 17.191406 21 17.191406 Z M 21 17.191406 " fill-opacity="1" fill-rule="nonzero"/><path fill="#080b53" d="M 20.929688 18.808594 C 20.691406 18.761719 20.460938 18.914062 20.414062 19.152344 C 19.695312 22.707031 16.539062 25.285156 12.90625 25.285156 C 12.664062 25.285156 12.46875 25.480469 12.46875 25.722656 C 12.46875 25.964844 12.664062 26.160156 12.90625 26.160156 C 14.890625 26.160156 16.820312 25.464844 18.34375 24.207031 C 19.847656 22.960938 20.886719 21.230469 21.269531 19.324219 C 21.320312 19.089844 21.164062 18.859375 20.929688 18.808594 Z M 20.929688 18.808594 " fill-opacity="1" fill-rule="nonzero"/><path fill="#080b53" d="M 12.90625 11.066406 C 11.152344 11.066406 9.503906 11.746094 8.265625 12.984375 C 7.027344 14.226562 6.34375 15.875 6.34375 17.628906 C 6.34375 17.871094 6.539062 18.066406 6.78125 18.066406 C 7.023438 18.066406 7.21875 17.871094 7.21875 17.628906 C 7.21875 14.492188 9.769531 11.941406 12.90625 11.941406 C 13.148438 11.941406 13.34375 11.742188 13.34375 11.503906 C 13.34375 11.261719 13.148438 11.066406 12.90625 11.066406 Z M 12.90625 11.066406 " fill-opacity="1" fill-rule="nonzero"/><path fill="#080b53" d="M 4.824219 16.996094 C 4.585938 16.988281 4.382812 17.179688 4.378906 17.421875 C 4.375 17.488281 4.375 17.558594 4.375 17.628906 C 4.375 17.871094 4.570312 18.066406 4.8125 18.066406 C 5.054688 18.066406 5.25 17.871094 5.25 17.628906 C 5.25 17.566406 5.25 17.503906 5.253906 17.441406 C 5.257812 17.199219 5.066406 17 4.824219 16.996094 Z M 4.824219 16.996094 " fill-opacity="1" fill-rule="nonzero"/><path fill="#080b53" d="M 12.90625 9.097656 C 10.925781 9.097656 8.992188 9.789062 7.46875 11.050781 C 5.96875 12.292969 4.929688 14.027344 4.542969 15.929688 C 4.496094 16.167969 4.648438 16.398438 4.886719 16.445312 C 4.914062 16.453125 4.945312 16.453125 4.972656 16.453125 C 5.175781 16.453125 5.359375 16.3125 5.402344 16.101562 C 6.117188 12.550781 9.273438 9.972656 12.90625 9.972656 C 13.148438 9.972656 13.34375 9.773438 13.34375 9.535156 C 13.34375 9.292969 13.148438 9.097656 12.90625 9.097656 Z M 12.90625 9.097656 " fill-opacity="1" fill-rule="nonzero"/></svg>