<svg xmlns="http://www.w3.org/2000/svg" xmlns:xlink="http://www.w3.org/1999/xlink" width="500" zoomAndPan="magnify" viewBox="0 0 375 374.999991" height="500" preserveAspectRatio="xMidYMid meet" version="1.0"><path fill="#000000" d="M 205.761719 59.8125 L 205.761719 315.179688 C 205.761719 336.933594 188.066406 354.625 166.3125 354.625 L 118.074219 354.625 L 116.417969 343.050781 C 115.460938 336.359375 109.636719 331.308594 102.882812 331.308594 C 96.125 331.308594 90.304688 336.355469 89.34375 343.042969 L 87.6875 354.625 L 39.445312 354.625 C 17.695312 354.625 0 336.933594 0 315.179688 L 0 59.8125 C 0 38.058594 17.695312 20.363281 39.445312 20.363281 L 88.621094 20.363281 L 89.226562 33.230469 C 89.5625 40.542969 95.5625 46.273438 102.882812 46.273438 C 110.191406 46.273438 116.191406 40.542969 116.539062 33.226562 L 117.144531 20.363281 L 166.3125 20.363281 C 188.066406 20.363281 205.761719 38.058594 205.761719 59.8125 Z M 130.023438 33.863281 C 129.335938 48.28125 117.46875 59.769531 102.882812 59.769531 C 88.289062 59.769531 76.414062 48.28125 75.742188 33.863281 L 39.445312 33.863281 C 25.113281 33.863281 13.496094 45.484375 13.496094 59.8125 L 13.496094 315.179688 C 13.496094 329.511719 25.113281 341.132812 39.445312 341.132812 L 75.984375 341.132812 C 77.875 327.953125 89.175781 317.8125 102.882812 317.8125 C 116.582031 317.8125 127.882812 327.953125 129.777344 341.132812 L 166.3125 341.132812 C 180.648438 341.132812 192.265625 329.511719 192.265625 315.179688 L 192.265625 59.8125 C 192.265625 45.484375 180.648438 33.863281 166.3125 33.863281 Z M 130.023438 33.863281 " fill-opacity="1" fill-rule="nonzero"/><path fill="#000000" d="M 53.160156 277.132812 L 53.160156 268.203125 L 29.867188 268.203125 L 29.867188 277.132812 Z M 53.160156 277.132812 " fill-opacity="1" fill-rule="nonzero"/><path fill="#000000" d="M 94.070312 277.132812 L 94.070312 268.203125 L 70.785156 268.203125 L 70.785156 277.132812 Z M 94.070312 277.132812 " fill-opacity="1" fill-rule="nonzero"/><path fill="#000000" d="M 134.984375 277.132812 L 134.984375 268.203125 L 111.695312 268.203125 L 111.695312 277.132812 Z M 134.984375 277.132812 " fill-opacity="1" fill-rule="nonzero"/><path fill="#000000" d="M 175.894531 277.132812 L 175.894531 268.203125 L 152.605469 268.203125 L 152.605469 277.132812 Z M 175.894531 277.132812 " fill-opacity="1" fill-rule="nonzero"/><path fill="#000000" d="M 242.609375 293.523438 L 238.269531 301.324219 L 217.925781 290 L 222.261719 282.199219 Z M 242.609375 293.523438 " fill-opacity="1" fill-rule="nonzero"/><path fill="#000000" d="M 243.878906 10.601562 L 275.601562 28.25 L 286.851562 34.519531 L 281.117188 46.054688 C 277.863281 52.605469 280.320312 60.53125 286.714844 64.082031 C 293.101562 67.648438 301.132812 65.550781 304.988281 59.328125 L 311.773438 48.378906 L 323.03125 54.644531 L 354.738281 72.289062 C 373.746094 82.863281 380.609375 106.929688 370.027344 125.941406 L 245.875 349.089844 C 235.296875 368.101562 211.226562 374.957031 192.21875 364.382812 L 191.066406 363.742188 C 195.746094 361.347656 200.03125 358.300781 203.816406 354.714844 C 215.273438 358.234375 228.015625 353.425781 234.082031 342.53125 L 358.234375 119.375 C 365.207031 106.851562 360.703125 91.050781 348.179688 84.078125 L 316.464844 66.4375 C 308.859375 78.707031 292.890625 82.972656 280.148438 75.882812 C 267.402344 68.789062 262.613281 52.976562 269.035156 40.046875 L 237.3125 22.398438 C 227.75 17.074219 216.296875 18.492188 208.308594 25.015625 C 205.40625 21.515625 202.039062 18.429688 198.371094 15.75 C 210.554688 4.835938 228.796875 2.210938 243.878906 10.601562 Z M 243.878906 10.601562 " fill-opacity="1" fill-rule="nonzero"/><path stroke-linecap="round" transform="matrix(4.6875, 0, 0, 4.6875, 28.416532, 67.499996)" fill="none" stroke-linejoin="round" d="M 9.500307 16.000002 L 16.000308 5.170001 L 22.500308 16.000002 L 16.000308 26.830003 " stroke="#080b53" stroke-width="1.472" stroke-opacity="1" stroke-miterlimit="10"/><path stroke-linecap="round" transform="matrix(4.6875, 0, 0, 4.6875, 28.416532, 67.499996)" fill="none" stroke-linejoin="round" d="M 16.000308 26.830003 L 9.500307 16.000002 " stroke="#080b53" stroke-width="1.472" stroke-opacity="1" stroke-miterlimit="10"/><path stroke-linecap="round" transform="matrix(4.6875, 0, 0, 4.6875, 28.416532, 67.499996)" fill="none" stroke-linejoin="round" d="M 17.990308 13.740002 L 22.500308 16.000002 " stroke="#080b53" stroke-width="1.472" stroke-opacity="1" stroke-miterlimit="10"/><path stroke-linecap="round" transform="matrix(4.6875, 0, 0, 4.6875, 28.416532, 67.499996)" fill="none" stroke-linejoin="round" d="M 9.500307 16.000002 L 14.010307 13.740002 " stroke="#080b53" stroke-width="1.472" stroke-opacity="1" stroke-miterlimit="10"/><path stroke-linecap="round" transform="matrix(4.6875, 0, 0, 4.6875, 28.416532, 67.499996)" fill="none" stroke-linejoin="round" d="M 16.000308 26.830003 L 9.500307 16.000002 L 16.000308 19.250002 L 22.500308 16.000002 Z M 16.000308 26.830003 " stroke="#080b53" stroke-width="1.472" stroke-opacity="1" stroke-miterlimit="10"/><path stroke-linecap="round" transform="matrix(4.6875, 0, 0, 4.6875, 28.416532, 67.499996)" fill="none" stroke-linejoin="round" d="M 16.000308 18.870002 L 16.000308 9.000002 " stroke="#080b53" stroke-width="1.472" stroke-opacity="1" stroke-miterlimit="10"/><path stroke-linecap="round" transform="matrix(4.6875, 0, 0, 4.6875, 28.416532, 67.499996)" fill="none" stroke-linejoin="round" d="M 16.000308 5.170001 L 9.500307 16.000002 L 16.000308 26.830003 L 22.500308 16.000002 Z M 16.000308 5.170001 " stroke="#080b53" stroke-width="1.472" stroke-opacity="1" stroke-miterlimit="10"/><path stroke-linecap="round" transform="matrix(4.6875, 0, 0, 4.6875, 28.416532, 67.499996)" fill="none" stroke-linejoin="round" d="M 30.500308 16.000002 C 30.500308 16.237502 30.494475 16.474169 30.482808 16.711669 C 30.471142 16.948335 30.453642 17.185002 30.430308 17.420835 C 30.406975 17.657502 30.377808 17.892502 30.342808 18.127502 C 30.308642 18.362502 30.267808 18.595836 30.221142 18.829169 C 30.175308 19.061669 30.122808 19.293336 30.065308 19.523336 C 30.007808 19.753336 29.944475 19.981669 29.875308 20.209169 C 29.806975 20.435836 29.731975 20.661669 29.651975 20.885002 C 29.572808 21.108336 29.486975 21.330002 29.396142 21.549169 C 29.305308 21.768336 29.209475 21.985002 29.107808 22.199169 C 29.006142 22.414169 28.899475 22.625836 28.787808 22.835002 C 28.676142 23.044169 28.559475 23.250836 28.436975 23.454169 C 28.315308 23.658336 28.187808 23.858336 28.056142 24.055836 C 27.924475 24.253336 27.787808 24.446669 27.646142 24.637503 C 27.505308 24.828336 27.359475 25.015003 27.208642 25.198336 C 27.057808 25.382503 26.902808 25.561669 26.743642 25.737503 C 26.584475 25.913336 26.421142 26.085003 26.252808 26.253336 C 26.085308 26.420836 25.913642 26.584169 25.737808 26.744169 C 25.561975 26.903336 25.381975 27.058336 25.198641 27.208336 C 25.015308 27.359169 24.828641 27.505003 24.637808 27.646669 C 24.446975 27.787503 24.252808 27.924169 24.056141 28.056669 C 23.858641 28.188336 23.657808 28.315003 23.454475 28.436669 C 23.251141 28.559169 23.044475 28.675836 22.835308 28.787503 C 22.626141 28.900003 22.414475 29.00667 22.199475 29.107503 C 21.985308 29.20917 21.767808 29.305836 21.548641 29.395836 C 21.329475 29.48667 21.108641 29.572503 20.885308 29.652503 C 20.661141 29.732503 20.436141 29.80667 20.209474 29.875836 C 19.981974 29.94417 19.753641 30.007503 19.522808 30.065836 C 19.292808 30.123336 19.061141 30.175003 18.828641 30.22167 C 18.596141 30.267503 18.361974 30.308336 18.127808 30.343336 C 17.892808 30.377503 17.657808 30.40667 17.421141 30.430003 C 17.185308 30.453336 16.948641 30.470836 16.711141 30.482503 C 16.474474 30.49417 16.236974 30.500003 16.000308 30.500003 C 15.762808 30.500003 15.525308 30.49417 15.288641 30.482503 C 15.051141 30.470836 14.815307 30.453336 14.578641 30.430003 C 14.342807 30.40667 14.106974 30.377503 13.872807 30.343336 C 13.637807 30.308336 13.403641 30.267503 13.171141 30.22167 C 12.938641 30.175003 12.706974 30.123336 12.476974 30.065836 C 12.246974 30.007503 12.017807 29.94417 11.791141 29.875836 C 11.563641 29.80667 11.338641 29.732503 11.115307 29.652503 C 10.891974 29.572503 10.670307 29.48667 10.451141 29.395836 C 10.231974 29.305836 10.015307 29.20917 9.800307 29.107503 C 9.58614 29.00667 9.37364 28.900003 9.164474 28.787503 C 8.955307 28.675836 8.74864 28.559169 8.545307 28.436669 C 8.341974 28.315003 8.14114 28.188336 7.944474 28.056669 C 7.746974 27.924169 7.552807 27.787503 7.361974 27.646669 C 7.171974 27.505003 6.984474 27.359169 6.80114 27.208336 C 6.617807 27.058336 6.43864 26.903336 6.262807 26.744169 C 6.086974 26.584169 5.914474 26.420836 5.746974 26.253336 C 5.579474 26.085003 5.415307 25.913336 5.25614 25.737503 C 5.096973 25.561669 4.941973 25.382503 4.79114 25.198336 C 4.64114 25.015003 4.494473 24.828336 4.35364 24.637503 C 4.211973 24.446669 4.075307 24.253336 3.94364 24.055836 C 3.811973 23.858336 3.685307 23.658336 3.562807 23.454169 C 3.44114 23.250836 3.32364 23.044169 3.211973 22.835002 C 3.100307 22.625836 2.99364 22.414169 2.891973 22.199169 C 2.790307 21.985002 2.694473 21.768336 2.60364 21.549169 C 2.512807 21.330002 2.427807 21.108336 2.347807 20.885002 C 2.267807 20.661669 2.19364 20.435836 2.124473 20.209169 C 2.055307 19.981669 1.991973 19.753336 1.934473 19.523336 C 1.876973 19.293336 1.825307 19.061669 1.77864 18.829169 C 1.731973 18.595836 1.691973 18.362502 1.656973 18.127502 C 1.621973 17.892502 1.592807 17.657502 1.569473 17.420835 C 1.546973 17.185002 1.529473 16.948335 1.517807 16.711669 C 1.50614 16.474169 1.500307 16.237502 1.500307 16.000002 C 1.500307 15.762502 1.50614 15.525835 1.517807 15.288335 C 1.529473 15.051669 1.546973 14.815002 1.569473 14.578335 C 1.592807 14.342502 1.621973 14.107502 1.656973 13.872502 C 1.691973 13.637502 1.731973 13.404168 1.77864 13.170835 C 1.825307 12.938335 1.876973 12.706668 1.934473 12.476668 C 1.991973 12.246668 2.055307 12.018335 2.124473 11.790835 C 2.19364 11.564168 2.267807 11.338335 2.347807 11.115002 C 2.427807 10.891668 2.512807 10.670002 2.60364 10.450835 C 2.694473 10.231668 2.790307 10.015002 2.891973 9.800835 C 2.99364 9.585835 3.100307 9.374168 3.211973 9.165002 C 3.32364 8.955835 3.44114 8.749168 3.562807 8.545835 C 3.685307 8.341668 3.811973 8.141668 3.94364 7.944168 C 4.075307 7.746668 4.211973 7.553335 4.35364 7.362501 C 4.494473 7.171668 4.64114 6.985001 4.79114 6.801668 C 4.941973 6.617501 5.096973 6.438335 5.25614 6.262501 C 5.415307 6.086668 5.579474 5.915001 5.746974 5.746668 C 5.914474 5.579168 6.086974 5.415835 6.262807 5.255835 C 6.43864 5.096668 6.617807 4.941668 6.80114 4.791668 C 6.984474 4.640835 7.171974 4.495001 7.361974 4.353335 C 7.552807 4.212501 7.746974 4.075835 7.944474 3.943335 C 8.14114 3.811668 8.341974 3.685001 8.545307 3.563335 C 8.74864 3.440835 8.955307 3.324168 9.164474 3.212501 C 9.37364 3.100001 9.58614 2.993334 9.800307 2.892501 C 10.015307 2.790834 10.231974 2.694168 10.451141 2.603334 C 10.670307 2.513334 10.891974 2.427501 11.115307 2.347501 C 11.338641 2.267501 11.563641 2.193334 11.791141 2.124168 C 12.017807 2.055834 12.246974 1.992501 12.476974 1.934168 C 12.706974 1.876668 12.938641 1.825001 13.171141 1.778334 C 13.403641 1.732501 13.637807 1.691668 13.872807 1.656668 C 14.106974 1.622501 14.342807 1.593334 14.578641 1.570001 C 14.815307 1.546668 15.051141 1.529168 15.288641 1.517501 C 15.525308 1.505834 15.762808 1.500001 16.000308 1.500001 C 16.236974 1.500001 16.474474 1.505834 16.711141 1.517501 C 16.948641 1.529168 17.185308 1.546668 17.421141 1.570001 C 17.657808 1.593334 17.892808 1.622501 18.127808 1.656668 C 18.361974 1.691668 18.596141 1.732501 18.828641 1.778334 C 19.061141 1.825001 19.292808 1.876668 19.522808 1.934168 C 19.753641 1.992501 19.981974 2.055834 20.209474 2.124168 C 20.436141 2.193334 20.661141 2.267501 20.885308 2.347501 C 21.108641 2.427501 21.329475 2.513334 21.548641 2.603334 C 21.767808 2.694168 21.985308 2.790834 22.199475 2.892501 C 22.414475 2.993334 22.626141 3.100001 22.835308 3.212501 C 23.044475 3.324168 23.251141 3.440835 23.454475 3.563335 C 23.657808 3.685001 23.858641 3.811668 24.056141 3.943335 C 24.252808 4.075835 24.446975 4.212501 24.637808 4.353335 C 24.828641 4.495001 25.015308 4.640835 25.198641 4.791668 C 25.381975 4.941668 25.561975 5.096668 25.737808 5.255835 C 25.913642 5.415835 26.085308 5.579168 26.252808 5.746668 C 26.421142 5.915001 26.584475 6.086668 26.743642 6.262501 C 26.902808 6.438335 27.057808 6.617501 27.208642 6.801668 C 27.359475 6.985001 27.505308 7.171668 27.646142 7.362501 C 27.787808 7.553335 27.924475 7.746668 28.056142 7.944168 C 28.187808 8.141668 28.315308 8.341668 28.436975 8.545835 C 28.559475 8.749168 28.676142 8.955835 28.787808 9.165002 C 28.899475 9.374168 29.006142 9.585835 29.107808 9.800835 C 29.209475 10.015002 29.305308 10.231668 29.396142 10.450835 C 29.486975 10.670002 29.572808 10.891668 29.651975 11.115002 C 29.731975 11.338335 29.806975 11.564168 29.875308 11.790835 C 29.944475 12.018335 30.007808 12.246668 30.065308 12.476668 C 30.122808 12.706668 30.175308 12.938335 30.221142 13.170835 C 30.267808 13.404168 30.308642 13.637502 30.342808 13.872502 C 30.377808 14.107502 30.406975 14.342502 30.430308 14.578335 C 30.453642 14.815002 30.471142 15.051669 30.482808 15.288335 C 30.494475 15.525835 30.500308 15.762502 30.500308 16.000002 Z M 30.500308 16.000002 " stroke="#080b53" stroke-width="1.472" stroke-opacity="1" stroke-miterlimit="10"/></svg>